<svg width="28" height="26" viewBox="0 0 28 26" fill="none" xmlns="http://www.w3.org/2000/svg">
<path d="M27.8834 3.89997C27.7667 3.78332 27.65 3.66662 27.4167 3.66662H5.25L4.66665 0.63332C4.66665 0.399969 4.31665 0.166672 4.0833 0.166672H0.583297C0.233352 0.166617 0 0.399969 0 0.749969C0 1.09997 0.233352 1.33332 0.583352 1.33332H3.6167L6.4167 15.5667C6.7667 17.4333 8.5167 18.8333 10.3834 18.8333H23.8C24.15 18.8333 24.3834 18.6 24.3834 18.25C24.3834 17.9 24.15 17.6666 23.8 17.6666H10.5C9.56665 17.6666 8.63335 17.2 8.16665 16.3833L25.2 14.05C25.4334 14.05 25.6666 13.8166 25.6666 13.5833L28 4.24997C28 4.24997 28 4.01662 27.8834 3.89997ZM24.6166 13L7.5833 15.2166L5.4833 4.71662H26.6L24.6166 13Z" fill="#191917"/>
<path d="M9.91665 20C8.28335 20 7 21.2833 7 22.9166C7 24.55 8.28335 25.8333 9.91665 25.8333C11.55 25.8333 12.8333 24.5499 12.8333 22.9166C12.8334 21.2833 11.55 20 9.91665 20ZM9.91665 24.6666C8.9833 24.6666 8.16665 23.8499 8.16665 22.9166C8.16665 21.9833 8.9833 21.1666 9.91665 21.1666C10.85 21.1666 11.6666 21.9833 11.6666 22.9166C11.6666 23.8499 10.85 24.6666 9.91665 24.6666Z" fill="#191917"/>
<path d="M21.5829 20C19.9496 20 18.6663 21.2833 18.6663 22.9166C18.6663 24.55 19.9496 25.8333 21.5829 25.8333C23.2163 25.8333 24.4996 24.5499 24.4996 22.9166C24.4996 21.2833 23.2162 20 21.5829 20ZM21.5829 24.6666C20.6496 24.6666 19.8329 23.8499 19.8329 22.9166C19.8329 21.9833 20.6496 21.1666 21.5829 21.1666C22.5163 21.1666 23.3329 21.9833 23.3329 22.9166C23.3329 23.8499 22.5162 24.6666 21.5829 24.6666Z" fill="#191917"/>
</svg>
