<svg width="170" height="93" viewBox="0 0 170 93" fill="none" xmlns="http://www.w3.org/2000/svg">
<path fill-rule="evenodd" clip-rule="evenodd" d="M17.8906 92.1382H19.5703L15.8984 83.0497H5.35156L10.7422 69.8088L9.96094 67.7717L0 92.1382H1.67969L4.80469 84.4208H14.7656L17.8906 92.1382ZM124.727 68.3985L125 68.4377C131.797 69.1036 136.523 74.9798 135.82 81.757C134.375 96.2123 113.125 96.0556 111.68 81.757C111.484 79.6807 111.758 77.6045 112.578 75.6849L114.297 75.6066C113.594 77.056 113.203 78.7014 113.203 80.4642C113.203 94.6453 134.258 94.6062 134.258 80.4642C134.258 74.4313 129.805 69.8088 123.75 69.7696C121.992 69.7696 120.391 70.1613 118.945 70.8665C118.672 70.4747 118.398 70.0438 118.125 69.6912C119.453 69.0253 120.938 68.5944 122.5 68.4377C123.32 68.3593 123.984 68.3593 124.727 68.3985ZM24.5312 92.1382L26.6016 73.2953L35.7812 93L44.9609 73.2953L47.0312 92.1382H48.5938L45.9375 67.85L35.7812 89.5527L25.625 67.85L22.9688 92.1382H24.5312ZM54.6484 92.1382H61.0547C65.3125 92.1382 68.3203 89.6702 68.3203 85.5569C68.3203 82.5404 66.5234 80.19 63.4766 79.6807C65.0391 78.7405 66.2109 77.0952 66.2109 74.5489C66.2109 71.0232 63.8281 68.6727 59.7656 68.6727H54.6484V92.1382ZM56.2109 70.083H59.1797C60.3906 70.083 61.9141 70.1613 63.0859 71.0623C63.8672 71.6891 64.6484 72.8644 64.6484 74.7056C64.6484 76.3117 64.0625 77.5261 63.0859 78.3096C62.0703 79.1323 61.0938 79.289 59.8828 79.289H56.1719V70.083H56.2109ZM56.2109 80.6992H59.8438C63.4375 80.6992 66.7188 81.326 66.7188 85.7136C66.7188 86.8105 66.4844 88.1816 65.1953 89.3176C63.6328 90.7279 61.6797 90.7279 60.1172 90.7279H56.1719V80.6992H56.2109ZM73.3984 68.6727V92.1382H74.9609V68.6727H73.3984ZM99.9609 71.4149C99.2578 70.749 96.5625 68.3593 92.1094 68.3593C85.3906 68.3593 79.9609 73.7262 79.9609 80.4642C79.9609 87.0063 85.1562 92.5299 92.1875 92.5299C94.7266 92.5299 97.5781 91.7073 99.9609 89.5918V87.5548C97.5781 90.1403 94.4531 91.1196 92.1094 91.1196C87.3828 91.1196 81.6016 87.4764 81.6016 80.5426C81.6016 74.588 86.0938 69.7696 92.1094 69.7696C95.1172 69.7696 98.0078 71.1015 100 73.452V71.4149H99.9609ZM105.039 68.6727V92.1382H106.602V68.6727H105.039ZM142.5 92.1382V72.1201L162.148 92.7258V68.6727H160.586V89.0434L140.938 68.4377V92.1382H142.5ZM168.438 68.6727V92.1382H170V68.6727H168.438Z" fill="white"/>
<path fill-rule="evenodd" clip-rule="evenodd" d="M61.5234 39.5661H59.9219L66.0937 29.1066H67.7344L61.5234 39.5661Z" fill="white"/>
<path fill-rule="evenodd" clip-rule="evenodd" d="M62.6172 44.4238L71.2891 29.1066H72.9297L65.0391 42.9743H108.672V44.3846L62.6172 44.4238Z" fill="white"/>
<path fill-rule="evenodd" clip-rule="evenodd" d="M92.6563 10.5771L94.1797 10.5379L88.0469 0H86.4453L92.6563 10.5771Z" fill="white"/>
<path fill-rule="evenodd" clip-rule="evenodd" d="M75.625 24.2489H74.0234L82.2656 9.67607H83.9062L75.625 24.2489Z" fill="white"/>
<path d="M84.4922 26.1293H63.4766V27.5004H84.4922V26.1293Z" fill="white"/>
<path fill-rule="evenodd" clip-rule="evenodd" d="M111.289 39.6445L88.0859 0H86.4453L108.867 38.195H70.4688V39.6053L111.289 39.6445Z" fill="white"/>
<path fill-rule="evenodd" clip-rule="evenodd" d="M70.5859 24.2489H68.9453L82.8516 0.626785L103.242 35.727H101.602L82.8516 3.40817L70.5859 24.2489Z" fill="white"/>
</svg>
