<svg width="80" height="80" viewBox="0 0 80 80" fill="none" xmlns="http://www.w3.org/2000/svg">
<path d="M40.0002 0C17.9429 0 0.000244141 17.9444 0.000244141 40C0.000244141 62.0556 17.9429 80 40.0002 80C62.0576 80 80.0002 62.0556 80.0002 40C80.0002 17.9444 62.0576 0 40.0002 0ZM55.902 41.4014L32.5687 56.4014C32.2952 56.5788 31.9795 56.6667 31.667 56.6667C31.3935 56.6667 31.1168 56.5983 30.8695 56.4633C30.3323 56.1703 30.0002 55.6103 30.0002 55V25C30.0002 24.3897 30.3323 23.8297 30.8695 23.5367C31.3968 23.247 32.0576 23.2648 32.5687 23.5986L55.902 38.5986C56.3773 38.9045 56.667 39.4336 56.667 40C56.667 40.5664 56.3773 41.0953 55.902 41.4014Z" fill="white"/>
</svg>
