<svg width="26" height="26" viewBox="0 0 26 26" fill="none" xmlns="http://www.w3.org/2000/svg">
<path d="M26 23.9433L18.3242 16.2675C19.5983 14.5672 20.3629 12.4645 20.3629 10.1814C20.3629 4.5671 15.7958 0 10.1814 0C4.5671 0 0 4.5671 0 10.1814C0 15.7958 4.5671 20.3629 10.1814 20.3629C12.4645 20.3629 14.5672 19.5983 16.2675 18.3242L23.9433 26L26 23.9433ZM0.969661 10.1814C0.969661 5.10187 5.10187 0.969661 10.1814 0.969661C15.261 0.969661 19.3932 5.10187 19.3932 10.1814C19.3932 15.261 15.261 19.3932 10.1814 19.3932C5.10187 19.3932 0.969661 15.261 0.969661 10.1814ZM17.244 17.499C17.3303 17.4156 17.4151 17.3307 17.4985 17.2444C17.5693 17.1712 17.6459 17.1038 17.7142 17.0287L24.6289 23.9433L23.9429 24.6294L17.0287 17.7142C17.1038 17.6459 17.1708 17.5693 17.244 17.499Z" fill="white"/>
</svg>
