<svg width="28" height="26" fill="none" xmlns="http://www.w3.org/2000/svg"><path d="M27.883 3.9c-.116-.117-.233-.233-.466-.233H5.25L4.667.633c0-.233-.35-.466-.584-.466h-3.5C.233.167 0 .4 0 .75s.233.583.583.583h3.034l2.8 14.234c.35 1.866 2.1 3.266 3.966 3.266H23.8c.35 0 .583-.233.583-.583s-.233-.583-.583-.583H10.5c-.933 0-1.867-.467-2.333-1.284L25.2 14.05a.502.502 0 00.467-.467L28 4.25s0-.233-.117-.35zM24.617 13L7.583 15.217l-2.1-10.5H26.6L24.617 13zm-14.7 7A2.888 2.888 0 007 22.917a2.888 2.888 0 002.917 2.916 2.888 2.888 0 002.916-2.916A2.888 2.888 0 009.917 20zm0 4.667c-.934 0-1.75-.817-1.75-1.75 0-.934.816-1.75 1.75-1.75.933 0 1.75.816 1.75 1.75 0 .933-.817 1.75-1.75 1.75zM21.583 20a2.888 2.888 0 00-2.916 2.917 2.888 2.888 0 002.916 2.916 2.888 2.888 0 002.917-2.916A2.888 2.888 0 0021.583 20zm0 4.667c-.933 0-1.75-.817-1.75-1.75 0-.934.817-1.75 1.75-1.75.934 0 1.75.816 1.75 1.75 0 .933-.817 1.75-1.75 1.75z" fill="#fff"/></svg>