<svg width="40" height="40" fill="none" xmlns="http://www.w3.org/2000/svg"><g clip-path="url(#clip0)" fill="#fff"><path d="M39.96 11.76c-.093-2.125-.437-3.586-.929-4.853a9.762 9.762 0 00-2.313-3.547 9.845 9.845 0 00-3.54-2.305c-1.273-.492-2.727-.836-4.852-.93C26.185.024 25.505 0 20.074 0c-5.43 0-6.11.024-8.244.117-2.125.094-3.586.438-4.852.93A9.76 9.76 0 003.43 3.36 9.848 9.848 0 001.125 6.9C.633 8.174.29 9.627.195 11.752.094 13.893.07 14.573.07 20.004c0 5.43.024 6.11.118 8.244.093 2.125.437 3.586.93 4.852a9.864 9.864 0 002.312 3.548 9.845 9.845 0 003.54 2.305c1.274.492 2.727.836 4.853.93 2.133.094 2.813.117 8.244.117 5.43 0 6.11-.023 8.243-.117 2.126-.094 3.587-.438 4.853-.93a10.231 10.231 0 005.853-5.853c.492-1.273.836-2.727.93-4.852.093-2.134.117-2.813.117-8.244 0-5.43-.008-6.11-.102-8.244zm-3.6 16.331c-.086 1.954-.414 3.009-.688 3.712a6.635 6.635 0 01-3.798 3.798c-.703.273-1.765.601-3.711.687-2.11.094-2.743.117-8.08.117s-5.978-.023-8.08-.117c-1.953-.086-3.008-.414-3.711-.687a6.155 6.155 0 01-2.298-1.493 6.218 6.218 0 01-1.492-2.297c-.274-.703-.602-1.766-.688-3.712-.094-2.11-.117-2.742-.117-8.08 0-5.337.023-5.977.117-8.08.086-1.953.414-3.008.688-3.71A6.08 6.08 0 016 5.93a6.21 6.21 0 012.3-1.492c.703-.273 1.766-.601 3.711-.687 2.11-.094 2.743-.117 8.08-.117 5.345 0 5.977.023 8.08.117 1.953.086 3.008.414 3.711.687a6.15 6.15 0 012.297 1.493 6.217 6.217 0 011.493 2.297c.274.703.602 1.766.688 3.712.093 2.11.117 2.742.117 8.08 0 5.337-.023 5.962-.117 8.071z"/><path d="M20.074 9.728C14.401 9.728 9.8 14.33 9.8 20.003c0 5.674 4.603 10.276 10.275 10.276 5.673 0 10.276-4.602 10.276-10.276 0-5.673-4.603-10.275-10.276-10.275zm0 16.94a6.667 6.667 0 010-13.33 6.666 6.666 0 010 13.33zM33.155 9.322a2.4 2.4 0 11-4.798 0 2.4 2.4 0 014.798 0z"/></g><defs><clipPath id="clip0"><path fill="#fff" d="M0 0h40v40H0z"/></clipPath></defs></svg>