<svg width="170" height="93" fill="none" xmlns="http://www.w3.org/2000/svg"><path fill-rule="evenodd" clip-rule="evenodd" d="M17.89 92.138h1.68l-3.672-9.088H5.352l5.39-13.241-.781-2.037L0 92.138h1.68l3.125-7.717h9.96l3.126 7.717zm106.837-23.74l.273.04c6.797.666 11.523 6.542 10.82 13.319-1.445 14.455-22.695 14.299-24.14 0-.196-2.076.078-4.153.898-6.072l1.719-.078a11.087 11.087 0 00-1.094 4.857c0 14.181 21.055 14.142 21.055 0 0-6.033-4.453-10.655-10.508-10.694-1.758 0-3.359.391-4.805 1.097-.273-.392-.547-.823-.82-1.176a12.565 12.565 0 014.375-1.253 14.24 14.24 0 012.227-.04zM24.531 92.138l2.07-18.843L35.782 93l9.18-19.705 2.07 18.843h1.563L45.937 67.85 35.782 89.553 25.625 67.85l-2.656 24.288h1.562zm30.117 0h6.407c4.258 0 7.265-2.468 7.265-6.581 0-3.017-1.797-5.367-4.843-5.876 1.562-.94 2.734-2.586 2.734-5.132 0-3.526-2.383-5.876-6.445-5.876h-5.118v23.465zm1.563-22.055h2.969c1.21 0 2.734.078 3.906.98.781.626 1.562 1.801 1.562 3.643 0 1.606-.585 2.82-1.562 3.604-1.016.822-1.992.979-3.203.979h-3.711v-9.206h.039zm0 10.616h3.633c3.593 0 6.875.627 6.875 5.015 0 1.097-.235 2.468-1.524 3.604-1.562 1.41-3.515 1.41-5.078 1.41h-3.945V80.699h.039zm17.187-12.026v23.465h1.563V68.673h-1.563zm26.563 2.742c-.703-.666-3.398-3.056-7.852-3.056-6.718 0-12.148 5.367-12.148 12.105 0 6.542 5.195 12.066 12.227 12.066 2.539 0 5.39-.823 7.773-2.938v-2.037c-2.383 2.585-5.508 3.565-7.852 3.565-4.726 0-10.507-3.644-10.507-10.577 0-5.955 4.492-10.773 10.507-10.773 3.008 0 5.899 1.332 7.891 3.682v-2.037h-.04zm5.078-2.742v23.465h1.563V68.673h-1.563zM142.5 92.138V72.12l19.648 20.606V68.673h-1.562v20.37l-19.648-20.605v23.7h1.562zm25.938-23.465v23.465H170V68.673h-1.562zM61.523 39.566h-1.601l6.172-10.46h1.64l-6.21 10.46zm1.094 4.858l8.672-15.317h1.64l-7.89 13.867h43.633v1.41l-46.055.04zm30.039-33.847l1.523-.04L88.047 0h-1.602l6.211 10.577zM75.625 24.249h-1.602l8.243-14.573h1.64L75.625 24.25z" fill="#000002"/><path d="M84.492 26.13H63.477v1.37h21.015v-1.37z" fill="#000002"/><path fill-rule="evenodd" clip-rule="evenodd" d="M111.289 39.645L88.086 0h-1.64l22.421 38.195H70.469v1.41l40.82.04z" fill="#000002"/><path fill-rule="evenodd" clip-rule="evenodd" d="M70.586 24.249h-1.64L82.852.627l20.39 35.1h-1.64L82.852 3.408l-12.266 20.84z" fill="#000002"/></svg>