<svg width="26" height="26" fill="none" xmlns="http://www.w3.org/2000/svg"><path d="M26 23.943l-7.676-7.676a10.115 10.115 0 002.039-6.086C20.363 4.567 15.796 0 10.18 0 4.567 0 0 4.567 0 10.181c0 5.615 4.567 10.182 10.181 10.182 2.284 0 4.386-.765 6.086-2.039L23.944 26 26 23.943zM.97 10.181C.97 5.101 5.102.97 10.18.97c5.08 0 9.212 4.132 9.212 9.211 0 5.08-4.132 9.212-9.212 9.212S.97 15.261.97 10.181zM17.244 17.5c.086-.083.171-.168.255-.255.07-.073.147-.14.215-.215l6.915 6.914-.686.686-6.914-6.915c.075-.068.142-.145.215-.215z" fill="#191917"/></svg>